<?xml version="1.0" standalone="no"?><!-- Generator: Gravit.io --><svg xmlns="http://www.w3.org/2000/svg" xmlns:xlink="http://www.w3.org/1999/xlink" style="isolation:isolate" viewBox="0 0 200 200" width="200" height="200"><defs><clipPath id="_clipPath_rGDkOedQdMrlGnsaNsik2SML45tcDk0K"><rect width="200" height="200"/></clipPath></defs><g clip-path="url(#_clipPath_rGDkOedQdMrlGnsaNsik2SML45tcDk0K)"><g><path d=" M 79.477 25.096 C 81.174 24.851 83.335 24.962 84.096 26.798 L 84.096 26.798 L 84.583 32.147 Q 81.49 43.401 76.316 52.572 Q 71.392 58.59 71.939 70.079 Q 71.967 76.616 75.586 79.562 Q 78.678 79.978 79.477 78.103 L 84.096 73.969 L 86.528 70.565 C 84.384 69.091 83.149 66.749 82.638 64.243 L 82.638 64.243 L 83.124 62.298 L 82.638 60.839 Q 83.002 48.803 87.744 41.144 Q 92.89 42.805 95.768 46.736 Q 96.902 48.276 96.254 51.599 Q 91.634 59.137 89.446 69.106 L 90.662 69.349 L 99.172 61.812 C 103.61 57.62 106.729 52.258 108.655 46.493 L 108.655 46.493 L 110.357 46.736 C 112.428 48.685 111.034 51.649 110.342 53.772 C 108.09 60.678 106.638 67.705 105.98 74.942 L 105.98 74.942 L 107.196 75.185 L 114.734 68.134 C 118.725 63.966 121.885 59.058 124.216 53.788 L 124.216 53.788 L 125.432 55.49 C 122.395 64.414 117.681 72.779 111.086 79.562 L 111.086 79.562 L 104.521 84.182 C 103.147 91.01 100.08 98.39 94.521 102.904 C 88.824 107.529 78.599 107.143 74.37 100.716 L 74.37 100.716 L 73.398 98.284 L 74.614 96.582 C 82.05 94.736 89.166 91.4 94.795 86.127 L 94.795 86.127 L 98.442 75.185 L 99.658 71.051 L 98.442 71.781 Q 97.014 74.972 92.12 74.699 Q 89.151 74.021 87.744 71.781 Q 84.631 79.609 78.504 84.425 Q 75.181 85.965 70.237 85.884 L 65.617 83.695 Q 60.172 79.9 60.997 69.836 Q 57.927 69.44 56.864 71.051 Q 56.283 79.711 50.785 83.452 L 45.922 84.911 C 40.197 84.23 38.985 76.682 40.116 72.054 C 40.845 69.076 41.877 66.232 43.733 63.757 L 43.733 63.757 L 41.059 58.651 L 37.411 60.839 Q 33.876 70.191 34.494 83.695 Q 35.588 84.303 34.98 86.613 L 34.494 88.558 L 34.494 89.531 C 34.694 91.107 34.505 93.028 32.792 93.664 L 32.792 93.664 L 24.038 98.041 C 22.495 97.527 22.562 95.698 22.822 94.394 L 22.822 94.394 L 22.822 85.64 C 24.511 79.153 24.954 72.383 24.768 65.702 L 24.768 65.702 L 23.065 64.973 L 16.014 69.592 C 11.763 76.321 16.866 85.915 10.422 91.719 L 10.422 91.719 L 6.288 91.476 L 5.802 87.099 C 7.178 86.182 6.657 84.012 6.288 82.723 L 6.288 82.723 L 7.747 73.969 L 4.343 71.538 C 3.319 69.286 3.481 66.622 3.857 64.243 L 3.857 64.243 L 5.072 61.082 Q 8.826 60.945 10.665 58.894 Q 12.845 47.458 17.23 38.226 L 20.148 37.74 L 21.363 38.469 C 18.362 43.005 17.759 48.723 17.959 54.031 L 17.959 54.031 L 20.148 54.76 L 26.713 52.086 C 27.346 43.917 29.184 35.669 33.278 28.5 L 33.278 28.5 L 38.141 27.527 C 39.95 27.594 41.845 28.014 43.247 29.229 L 43.247 29.229 L 43.733 33.606 C 41.834 37.247 40.992 41.211 40.489 45.255 C 40.177 47.756 40.936 48.56 43.49 47.952 L 43.49 47.952 L 46.894 46.979 L 46.894 47.466 C 44.164 47.84 41.445 48.771 39.357 50.627 L 39.357 50.627 L 38.87 52.572 L 39.6 52.815 L 48.11 50.14 L 47.624 48.195 L 48.596 47.709 L 48.353 46.979 L 50.542 48.681 L 50.055 50.14 L 51.028 50.627 L 49.569 51.113 L 54.432 55.003 C 56.723 58.761 57.968 63.069 58.566 67.404 L 58.566 67.404 L 61.24 66.675 C 63.02 51.945 67.866 37.202 78.018 26.068 L 78.018 26.068 L 79.477 25.096 Z " fill="rgb(155,226,105)"/><path d=" M 80.935 28.986 L 81.665 29.229 C 79.858 38.91 76.6 48.413 71.209 56.705 L 71.209 56.705 L 70.966 53.058 C 71.819 45.043 74.11 36.977 78.99 30.445 L 78.99 30.445 L 80.935 28.986 Z  M 49.812 53.301 L 52.487 55.49 C 53.994 58.127 54.432 61.249 54.432 64.243 L 54.432 64.243 L 53.216 66.431 L 51.271 66.918 L 45.679 61.812 C 44.3 60.827 44.1 58.995 44.22 57.435 L 44.22 57.435 L 48.596 55.003 L 48.84 53.788 L 49.812 53.301 Z  M 24.524 57.678 L 25.74 57.921 L 20.634 59.623 L 20.634 59.137 L 24.524 57.678 Z  M 9.449 60.596 L 10.665 60.839 C 10.791 62.139 10.655 63.706 9.449 64.486 L 9.449 64.486 L 7.99 64.973 L 8.476 64 L 9.206 63.757 L 8.963 63.027 L 7.261 62.784 L 7.99 61.082 L 9.449 60.596 Z  M 51.271 70.808 L 52.973 71.051 C 52.612 74.08 51.695 77.117 49.812 79.562 L 49.812 79.562 L 48.11 78.832 C 47.876 75.842 48.367 72.372 51.271 70.808 L 51.271 70.808 Z " fill-rule="evenodd" fill="rgb(253,253,253)"/><path d=" M 69.264 93.664 L 70.48 93.908 C 68.971 101.89 66.107 109.711 61.24 116.277 L 61.24 116.277 L 63.915 114.089 L 64.888 113.603 C 68.528 114.008 72.426 115.536 74.729 118.533 C 76.914 121.376 75.401 127.386 73.649 130.023 C 72.4 131.903 69.507 133.503 67.562 131.353 L 67.562 131.353 L 65.374 127.706 L 63.185 132.812 C 64.006 136.452 66.843 141.727 71.209 141.322 L 71.209 141.322 L 77.288 138.647 Q 78.155 122.494 86.285 113.603 Q 86.793 110.95 90.175 111.171 L 91.148 111.171 L 94.552 112.144 L 100.631 115.791 Q 100.995 117.615 99.901 117.98 Q 95.354 117.323 94.309 120.168 Q 87.189 128.61 84.583 141.565 L 85.799 141.808 C 91.135 136.039 95.516 129.428 98.929 122.356 L 98.929 122.356 L 100.874 121.87 Q 102.211 122.478 101.603 125.031 Q 97.104 130.257 97.713 140.593 L 98.929 141.322 L 102.09 139.134 L 102.819 137.918 L 104.521 136.702 Q 105.008 119.439 113.518 110.199 Q 114.026 107.546 117.408 107.767 L 118.381 107.767 L 121.785 108.74 L 127.864 112.387 Q 128.228 114.211 127.134 114.575 Q 122.587 113.919 121.542 116.764 Q 114.422 125.206 111.816 138.161 L 113.031 138.404 C 118.368 132.634 122.749 126.024 126.162 118.952 L 126.162 118.952 L 128.107 118.466 Q 129.444 119.074 128.836 121.627 Q 124.337 126.853 124.946 137.188 L 126.162 137.918 L 129.323 135.73 L 130.052 134.514 L 134.186 131.353 C 133.281 128.718 133.355 125.813 133.699 123.086 L 133.699 123.086 L 134.672 121.627 L 134.186 120.654 L 137.103 113.846 L 136.617 112.387 C 137.929 110.544 140.025 109.576 142.21 109.226 L 142.21 109.226 L 144.398 110.928 C 142.659 113.273 142.331 116.366 142.453 119.195 L 142.453 119.195 L 142.939 120.654 C 141.609 121.37 141.882 123.428 141.885 124.687 C 141.889 126.645 142.099 128.754 143.668 130.137 L 143.668 130.137 L 146.1 130.623 L 149.261 128.435 L 148.288 126.004 L 148.775 124.545 L 148.288 124.545 L 148.045 125.274 L 147.802 124.058 C 149.055 123.261 148.612 121.325 148.288 120.168 L 148.288 120.168 L 147.802 120.168 L 147.559 123.329 L 147.316 119.682 L 148.288 114.819 L 147.802 114.819 L 147.559 115.548 L 147.316 114.819 C 148.886 109.808 151.69 105.224 155.826 101.932 L 155.826 101.932 L 156.799 101.445 C 160.439 101.85 164.338 103.378 166.64 106.375 C 168.825 109.218 167.312 115.229 165.56 117.866 C 164.311 119.745 161.419 121.345 159.473 119.195 L 159.473 119.195 L 157.285 115.548 L 156.556 118.709 L 157.042 119.682 C 155.956 120.632 155.914 122.25 156.069 123.572 L 156.069 123.572 L 159.23 127.706 Q 160.172 129.438 163.121 129.164 Q 169.961 127.251 173.576 122.113 Q 168.679 117.041 167.74 108.01 Q 168.457 101.189 171.874 97.069 L 175.035 98.771 Q 177.353 101.072 177.467 105.579 Q 174.792 108.74 175.035 114.819 L 177.71 117.007 L 180.141 113.116 L 180.384 114.332 L 178.439 118.709 L 182.086 123.329 C 185.177 122.155 187.989 120.289 190.11 117.736 L 190.11 117.736 L 195.217 111.171 L 195.946 111.414 L 196.432 113.36 C 194.764 118.476 191.576 122.935 186.949 125.76 L 186.949 125.76 L 184.761 126.976 L 184.275 129.408 C 186.015 130.684 185.265 133.549 184.761 135.243 L 184.761 135.243 L 178.682 144.726 L 176.737 146.185 L 176.494 145.456 L 176.737 144.726 L 173.819 146.185 L 172.847 145.699 L 171.388 146.185 C 168.888 144.815 168.836 141.607 169.199 139.134 L 169.199 139.134 L 173.576 131.839 C 175.807 131.011 176.208 128.609 176.008 126.49 L 176.008 126.49 L 175.278 125.274 C 172.9 129.034 168.954 131.191 164.669 132.05 C 160.692 132.847 155.042 133.487 151.936 130.137 L 151.936 130.137 L 149.018 133.541 C 147.42 135.371 145.054 136.203 142.696 136.459 L 142.696 136.459 L 141.723 136.459 C 139.168 136.047 136.67 135.016 134.915 133.055 L 134.915 133.055 L 129.809 137.675 Q 122.747 141.311 123.973 153.236 Q 124.519 164.968 117.408 169.041 Q 114.445 172.157 107.682 171.473 Q 105.484 169.051 105.98 163.935 Q 108.498 155.268 113.275 148.86 Q 117.432 144.264 117.651 135.73 L 117.165 135.73 L 113.031 141.322 L 109.141 141.808 L 105.251 138.891 L 102.576 141.079 Q 95.514 144.715 96.74 156.641 Q 97.286 168.372 90.175 172.445 Q 87.212 175.561 80.449 174.877 Q 78.251 172.456 78.747 167.339 Q 81.265 158.672 86.042 152.264 Q 90.2 147.668 90.418 139.134 L 89.932 139.134 L 85.799 144.726 L 81.908 145.212 L 78.261 142.538 L 78.018 141.808 C 72.684 147.212 61.063 145.757 56.864 139.62 L 56.864 139.62 L 56.377 138.161 L 56.864 136.702 L 56.377 136.702 L 56.134 137.432 L 55.891 136.216 C 57.144 135.418 56.701 133.483 56.377 132.325 L 56.377 132.325 L 55.891 132.325 L 55.648 135.486 L 55.405 131.839 L 56.377 126.976 L 55.891 126.976 L 55.161 129.164 L 54.432 129.408 C 51.714 137.585 47.962 145.446 43.004 152.507 L 43.004 152.507 L 41.302 152.75 L 40.572 153.966 L 35.709 155.911 L 31.089 153.723 C 27.477 140.8 25.465 127.461 24.524 114.089 L 24.524 114.089 L 22.822 113.36 L 22.093 111.171 L 20.877 110.442 C 22.213 108.377 25.067 109.463 26.956 109.712 C 30.769 110.216 34.032 109.97 36.999 112.89 C 38.069 113.943 38.319 115.799 38.425 117.21 C 38.72 121.164 38.594 125.776 36.925 129.408 L 36.925 129.408 L 38.141 133.541 L 38.384 128.435 L 37.898 127.462 L 39.113 125.76 C 40.457 127.44 40.533 129.797 40.329 131.839 L 40.329 131.839 L 39.843 132.812 L 40.816 134.757 L 39.357 135.73 L 38.141 134.028 L 37.898 136.216 L 38.627 138.891 L 40.086 136.459 L 41.302 137.188 C 41.098 138.765 41.13 140.742 42.518 141.808 L 42.518 141.808 L 43.733 141.565 C 50.046 125.29 57.7 109.521 66.833 94.637 L 66.833 94.637 L 69.264 93.664 Z " fill="rgb(155,226,105)"/><path d=" M 91.634 93.664 L 92.85 93.908 C 90.875 99.623 87.17 103.493 80.935 102.418 L 80.935 102.418 L 78.747 100.716 C 78.132 97.639 82.372 97.774 84.384 97.052 C 86.898 96.151 89.338 95.031 91.634 93.664 L 91.634 93.664 Z " fill="rgb(253,253,253)"/><path d=" M 141.237 99.014 C 142.694 98.858 144.372 99.13 144.884 100.716 L 144.884 100.716 L 142.696 104.363 C 141.746 105.449 140.128 105.491 138.805 105.336 L 138.805 105.336 L 138.562 104.12 C 138.821 102.157 139.614 100.233 141.237 99.014 L 141.237 99.014 Z " fill="rgb(155,226,105)"/><path d=" M 162.634 107.767 L 163.85 108.01 Q 164.09 112.871 161.662 115.062 Q 159.352 115.426 158.501 114.332 Q 158.926 110.138 161.662 108.253 L 162.634 107.767 Z  M 70.723 119.925 L 71.939 120.168 Q 72.179 125.028 69.751 127.219 Q 67.441 127.584 66.59 126.49 Q 67.015 122.295 69.751 120.411 L 70.723 119.925 Z  M 176.737 133.055 L 177.467 133.298 C 177.35 137.752 176.104 142.44 172.36 145.212 L 172.36 145.212 L 170.172 143.51 C 171.07 139.347 173.166 135.495 176.737 133.055 L 176.737 133.055 Z  M 114.49 151.534 L 115.22 151.778 L 114.247 159.558 L 113.761 161.99 L 114.247 164.421 L 112.059 167.582 L 110.357 166.367 L 109.87 162.962 C 110.554 158.88 111.963 154.853 114.49 151.534 L 114.49 151.534 Z  M 87.257 154.939 L 87.987 155.182 L 87.014 162.962 L 86.528 165.394 L 87.014 167.826 L 84.826 170.986 L 83.124 169.771 L 82.638 166.367 C 83.321 162.284 84.73 158.258 87.257 154.939 L 87.257 154.939 Z " fill-rule="evenodd" fill="rgb(253,253,253)"/></g></g></svg>