<?xml version="1.0" standalone="no"?><!-- Generator: Gravit.io --><svg xmlns="http://www.w3.org/2000/svg" xmlns:xlink="http://www.w3.org/1999/xlink" style="isolation:isolate" viewBox="0 0 500 500" width="500" height="500"><defs><clipPath id="_clipPath_zYy062JsurgzHsU0TJjWJwTcVlUzjs2Y"><rect width="500" height="500"/></clipPath></defs><g clip-path="url(#_clipPath_zYy062JsurgzHsU0TJjWJwTcVlUzjs2Y)"><g><path d=" M 218.5 105 C 221.991 104.497 226.433 104.725 228 108.5 L 228 108.5 L 229 119.5 Q 222.641 142.641 212 161.5 Q 201.875 173.875 203 197.5 Q 203.057 210.943 210.5 217 Q 216.857 217.857 218.5 214 L 228 205.5 L 233 198.5 C 228.592 195.468 226.051 190.653 225 185.5 L 225 185.5 L 226 181.5 L 225 178.5 Q 225.75 153.75 235.5 138 Q 246.083 141.417 252 149.5 Q 254.333 152.667 253 159.5 Q 243.5 175 239 195.5 L 241.5 196 L 259 180.5 C 268.127 171.88 274.54 160.854 278.5 149 L 278.5 149 L 282 149.5 C 286.258 153.508 283.392 159.603 281.969 163.969 C 277.34 178.17 274.353 192.619 273 207.5 L 273 207.5 L 275.5 208 L 291 193.5 C 299.208 184.929 305.705 174.837 310.5 164 L 310.5 164 L 313 167.5 C 306.756 185.852 297.061 203.052 283.5 217 L 283.5 217 L 270 226.5 C 267.175 240.542 260.868 255.717 249.437 264.999 C 237.722 274.51 216.694 273.715 208 260.5 L 208 260.5 L 206 255.5 L 208.5 252 C 223.792 248.204 238.425 241.344 250 230.5 L 250 230.5 L 257.5 208 L 260 199.5 L 257.5 201 Q 254.563 207.562 244.5 207 Q 238.393 205.607 235.5 201 Q 229.098 217.098 216.5 227 Q 209.667 230.167 199.5 230 L 190 225.5 Q 178.804 217.696 180.5 197 Q 174.188 196.188 172 199.5 Q 170.807 217.307 159.5 225 L 149.5 228 C 137.727 226.6 135.236 211.078 137.563 201.563 C 139.06 195.438 141.183 189.59 145 184.5 L 145 184.5 L 139.5 174 L 132 178.5 Q 124.731 197.731 126 225.5 Q 128.25 226.75 127 231.5 L 126 235.5 L 126 237.5 C 126.413 240.741 126.022 244.692 122.5 246 L 122.5 246 L 104.5 255 C 101.327 253.942 101.464 250.182 102 247.5 L 102 247.5 L 102 229.5 C 105.472 216.16 106.384 202.238 106 188.5 L 106 188.5 L 102.5 187 L 88 196.5 C 79.259 210.336 89.751 230.065 76.5 242 L 76.5 242 L 68 241.5 L 67 232.5 C 69.83 230.614 68.758 226.152 68 223.5 L 68 223.5 L 71 205.5 L 64 200.5 C 61.895 195.869 62.228 190.392 63 185.5 L 63 185.5 L 65.5 179 Q 73.218 178.718 77 174.5 Q 81.483 150.983 90.5 132 L 96.5 131 L 99 132.5 C 92.827 141.827 91.588 153.586 92 164.5 L 92 164.5 L 96.5 166 L 110 160.5 C 111.303 143.704 115.081 126.743 123.5 112 L 123.5 112 L 133.5 110 C 137.221 110.138 141.117 111.001 144 113.5 L 144 113.5 L 145 122.5 C 141.093 129.988 139.363 138.139 138.328 146.453 C 137.688 151.597 139.247 153.251 144.5 152 L 144.5 152 L 151.5 150 L 151.5 151 C 145.885 151.769 140.294 153.685 136 157.5 L 136 157.5 L 135 161.5 L 136.5 162 L 154 156.5 L 153 152.5 L 155 151.5 L 154.5 150 L 159 153.5 L 158 156.5 L 160 157.5 L 157 158.5 L 167 166.5 C 171.711 174.227 174.27 183.086 175.5 192 L 175.5 192 L 181 190.5 C 184.66 160.211 194.625 129.894 215.5 107 L 215.5 107 L 218.5 105 Z " fill="rgb(155,226,105)"/><path d=" M 221.5 113 L 223 113.5 C 219.284 133.406 212.585 152.949 201.5 170 L 201.5 170 L 201 162.5 C 202.754 146.018 207.465 129.432 217.5 116 L 217.5 116 L 221.5 113 Z  M 157.5 163 L 163 167.5 C 166.099 172.923 167 179.342 167 185.5 L 167 185.5 L 164.5 190 L 160.5 191 L 149 180.5 C 146.164 178.475 145.753 174.707 146 171.5 L 146 171.5 L 155 166.5 L 155.5 164 L 157.5 163 Z  M 105.5 172 L 108 172.5 L 97.5 176 L 97.5 175 L 105.5 172 Z  M 74.5 178 L 77 178.5 C 77.259 181.173 76.98 184.395 74.5 186 L 74.5 186 L 71.5 187 L 72.5 185 L 74 184.5 L 73.5 183 L 70 182.5 L 71.5 179 L 74.5 178 Z  M 160.5 199 L 164 199.5 C 163.258 205.728 161.372 211.974 157.5 217 L 157.5 217 L 154 215.5 C 153.519 209.351 154.528 202.215 160.5 199 L 160.5 199 Z " fill-rule="evenodd" fill="rgb(253,253,253)"/><path d=" M 197.5 246 L 200 246.5 C 196.897 262.915 191.007 278.997 181 292.5 L 181 292.5 L 186.5 288 L 188.5 287 C 195.987 287.833 204.003 290.975 208.738 297.137 C 213.231 302.984 210.119 315.344 206.516 320.766 C 203.947 324.63 198 327.921 194 323.5 L 194 323.5 L 189.5 316 L 185 326.5 C 186.687 333.985 192.522 344.833 201.5 344 L 201.5 344 L 214 338.5 Q 215.783 305.283 232.5 287 Q 233.545 281.545 240.5 282 L 242.5 282 L 249.5 284 L 262 291.5 Q 262.75 295.25 260.5 296 Q 251.15 294.65 249 300.5 Q 234.359 317.859 229 344.5 L 231.5 345 C 242.473 333.135 251.482 319.543 258.5 305 L 258.5 305 L 262.5 304 Q 265.25 305.25 264 310.5 Q 254.747 321.247 256 342.5 L 258.5 344 L 265 339.5 L 266.5 337 L 270 334.5 Q 271.002 299.002 288.5 280 Q 289.545 274.545 296.5 275 L 298.5 275 L 305.5 277 L 318 284.5 Q 318.75 288.25 316.5 289 Q 307.15 287.65 305 293.5 Q 290.359 310.859 285 337.5 L 287.5 338 C 298.473 326.135 307.482 312.543 314.5 298 L 314.5 298 L 318.5 297 Q 321.25 298.25 320 303.5 Q 310.747 314.247 312 335.5 L 314.5 337 L 321 332.5 L 322.5 330 L 331 323.5 C 329.14 318.081 329.292 312.109 330 306.5 L 330 306.5 L 332 303.5 L 331 301.5 L 337 287.5 L 336 284.5 C 338.697 280.711 343.007 278.719 347.5 278 L 347.5 278 L 352 281.5 C 348.424 286.323 347.75 292.681 348 298.5 L 348 298.5 L 349 301.5 C 346.265 302.973 346.826 307.205 346.832 309.793 C 346.841 313.818 347.272 318.157 350.5 321 L 350.5 321 L 355.5 322 L 362 317.5 L 360 312.5 L 361 309.5 L 360 309.5 L 359.5 311 L 359 308.5 C 361.577 306.86 360.666 302.88 360 300.5 L 360 300.5 L 359 300.5 L 358.5 307 L 358 299.5 L 360 289.5 L 359 289.5 L 358.5 291 L 358 289.5 C 361.229 279.197 366.994 269.77 375.5 263 L 375.5 263 L 377.5 262 C 384.987 262.833 393.003 265.975 397.738 272.137 C 402.231 277.984 399.119 290.344 395.516 295.766 C 392.947 299.63 387 302.921 383 298.5 L 383 298.5 L 378.5 291 L 377 297.5 L 378 299.5 C 375.767 301.454 375.68 304.781 376 307.5 L 376 307.5 L 382.5 316 Q 384.438 319.563 390.5 319 Q 404.566 315.066 412 304.5 Q 401.93 294.07 400 275.5 Q 401.473 261.473 408.5 253 L 415 256.5 Q 419.767 261.233 420 270.5 Q 414.5 277 415 289.5 L 420.5 294 L 425.5 286 L 426 288.5 L 422 297.5 L 429.5 307 C 435.854 304.586 441.638 300.749 446 295.5 L 446 295.5 L 456.5 282 L 458 282.5 L 459 286.5 C 455.57 297.022 449.014 306.189 439.5 312 L 439.5 312 L 435 314.5 L 434 319.5 C 437.579 322.125 436.036 328.017 435 331.5 L 435 331.5 L 422.5 351 L 418.5 354 L 418 352.5 L 418.5 351 L 412.5 354 L 410.5 353 L 407.5 354 C 402.36 351.183 402.253 344.587 403 339.5 L 403 339.5 L 412 324.5 C 416.587 322.796 417.411 317.858 417 313.5 L 417 313.5 L 415.5 311 C 410.61 318.732 402.495 323.168 393.683 324.933 C 385.506 326.572 373.888 327.889 367.5 321 L 367.5 321 L 361.5 328 C 358.214 331.762 353.348 333.474 348.5 334 L 348.5 334 L 346.5 334 C 341.246 333.153 336.109 331.033 332.5 327 L 332.5 327 L 322 336.5 Q 307.478 343.978 310 368.5 Q 311.123 392.623 296.5 401 Q 290.406 407.406 276.5 406 Q 271.979 401.021 273 390.5 Q 278.178 372.678 288 359.5 Q 296.55 350.05 297 332.5 L 296 332.5 L 287.5 344 L 279.5 345 L 271.5 339 L 266 343.5 Q 251.478 350.978 254 375.5 Q 255.123 399.623 240.5 408 Q 234.406 414.406 220.5 413 Q 215.979 408.021 217 397.5 Q 222.178 379.678 232 366.5 Q 240.55 357.05 241 339.5 L 240 339.5 L 231.5 351 L 223.5 352 L 216 346.5 L 215.5 345 C 204.533 356.112 180.635 353.121 172 340.5 L 172 340.5 L 171 337.5 L 172 334.5 L 171 334.5 L 170.5 336 L 170 333.5 C 172.577 331.86 171.666 327.88 171 325.5 L 171 325.5 L 170 325.5 L 169.5 332 L 169 324.5 L 171 314.5 L 170 314.5 L 168.5 319 L 167 319.5 C 161.411 336.316 153.696 352.481 143.5 367 L 143.5 367 L 140 367.5 L 138.5 370 L 128.5 374 L 119 369.5 C 111.572 342.927 107.435 315.497 105.5 288 L 105.5 288 L 102 286.5 L 100.5 282 L 98 280.5 C 100.747 276.255 106.615 278.487 110.5 279 C 118.342 280.036 125.051 279.531 131.153 285.535 C 133.353 287.7 133.867 291.515 134.083 294.417 C 134.69 302.549 134.433 312.033 131 319.5 L 131 319.5 L 133.5 328 L 134 317.5 L 133 315.5 L 135.5 312 C 138.263 315.453 138.42 320.301 138 324.5 L 138 324.5 L 137 326.5 L 139 330.5 L 136 332.5 L 133.5 329 L 133 333.5 L 134.5 339 L 137.5 334 L 140 335.5 C 139.58 338.741 139.647 342.807 142.5 345 L 142.5 345 L 145 344.5 C 157.981 311.032 173.721 278.607 192.5 248 L 192.5 248 L 197.5 246 Z " fill="rgb(155,226,105)"/><path d=" M 243.5 246 L 246 246.5 C 241.94 258.252 234.321 266.211 221.5 264 L 221.5 264 L 217 260.5 C 215.735 254.173 224.453 254.451 228.592 252.967 C 233.762 251.114 238.779 248.81 243.5 246 L 243.5 246 Z " fill="rgb(253,253,253)"/><path d=" M 345.5 257 C 348.497 256.681 351.946 257.239 353 260.5 L 353 260.5 L 348.5 268 C 346.546 270.233 343.219 270.32 340.5 270 L 340.5 270 L 340 267.5 C 340.532 263.463 342.163 259.507 345.5 257 L 345.5 257 Z " fill="rgb(155,226,105)"/><path d=" M 389.5 275 L 392 275.5 Q 392.494 285.494 387.5 290 Q 382.75 290.75 381 288.5 Q 381.875 279.875 387.5 276 L 389.5 275 Z  M 200.5 300 L 203 300.5 Q 203.494 310.494 198.5 315 Q 193.75 315.75 192 313.5 Q 192.875 304.875 198.5 301 L 200.5 300 Z  M 418.5 327 L 420 327.5 C 419.76 336.658 417.198 346.299 409.5 352 L 409.5 352 L 405 348.5 C 406.846 339.939 411.157 332.018 418.5 327 L 418.5 327 Z  M 290.5 365 L 292 365.5 L 290 381.5 L 289 386.5 L 290 391.5 L 285.5 398 L 282 395.5 L 281 388.5 C 282.406 380.105 285.302 371.825 290.5 365 L 290.5 365 Z  M 234.5 372 L 236 372.5 L 234 388.5 L 233 393.5 L 234 398.5 L 229.5 405 L 226 402.5 L 225 395.5 C 226.406 387.105 229.302 378.825 234.5 372 L 234.5 372 Z " fill-rule="evenodd" fill="rgb(253,253,253)"/></g></g></svg>